<svg xmlns="http://www.w3.org/2000/svg" width="206.688" height="39" viewBox="0 0 206.688 39">
  <defs>
    <style>
      .cls-1 {
        fill-rule: evenodd;
      }
    </style>
  </defs>
  <path id="Landbox" class="cls-1" d="M386.856,113v-3.976H375.325V86.818h-4.743V113h16.274Zm12.228-.032a5.67,5.67,0,0,0,1.9-1.138,5.6,5.6,0,0,0,1.182-1.528h0.154V113h4.449V99.858a6.759,6.759,0,0,0-.71-3.26,5.622,5.622,0,0,0-1.873-2.065,8.034,8.034,0,0,0-2.569-1.093,12.263,12.263,0,0,0-2.826-.332,11.107,11.107,0,0,0-3.758.607,7.435,7.435,0,0,0-2.877,1.815,6.952,6.952,0,0,0-1.687,3l4.321,0.614a3.665,3.665,0,0,1,1.336-1.751,4.392,4.392,0,0,1,2.691-.741,3.5,3.5,0,0,1,2.467.793,2.9,2.9,0,0,1,.857,2.237v0.077a1.074,1.074,0,0,1-.492.978,4.041,4.041,0,0,1-1.566.461q-1.074.147-2.8,0.326a19.789,19.789,0,0,0-2.768.492,8.556,8.556,0,0,0-2.4.991,4.757,4.757,0,0,0-1.675,1.738,5.54,5.54,0,0,0-.613,2.749,5.793,5.793,0,0,0,.863,3.247,5.4,5.4,0,0,0,2.352,1.988,8.087,8.087,0,0,0,3.356.671A7.642,7.642,0,0,0,399.084,112.968Zm-3.854-3.624a2.479,2.479,0,0,1-.461-3.395,3.111,3.111,0,0,1,1.292-.888,8.039,8.039,0,0,1,1.853-.46l1.087-.154c0.417-.059.839-0.128,1.266-0.2a11.06,11.06,0,0,0,1.157-.269,2.177,2.177,0,0,0,.735-0.332v2.314a3.81,3.81,0,0,1-.557,2.007,4.065,4.065,0,0,1-1.578,1.477,5,5,0,0,1-2.417.556A4.06,4.06,0,0,1,395.23,109.344ZM416.6,99.078a3.717,3.717,0,0,1,1.47-1.528,4.311,4.311,0,0,1,2.154-.531,3.612,3.612,0,0,1,2.807,1.112,4.4,4.4,0,0,1,1.016,3.081V113h4.628V100.5a8.663,8.663,0,0,0-.825-4,5.905,5.905,0,0,0-2.352-2.518,7.009,7.009,0,0,0-3.548-.869,6.612,6.612,0,0,0-3.688.972,5.6,5.6,0,0,0-2.167,2.62h-0.23V93.363H411.44V113h4.628V101.494A5.082,5.082,0,0,1,416.6,99.078Zm26.879,13.7a5.632,5.632,0,0,0,1.789-1.361,7.777,7.777,0,0,0,1.036-1.515h0.281V113h4.551V86.818h-4.64v9.793H446.3a8.713,8.713,0,0,0-1.01-1.528,5.48,5.48,0,0,0-1.764-1.394,6.106,6.106,0,0,0-2.838-.582,7.555,7.555,0,0,0-4.1,1.157,7.959,7.959,0,0,0-2.921,3.413,12.726,12.726,0,0,0-1.081,5.529,12.869,12.869,0,0,0,1.062,5.5,8.07,8.07,0,0,0,2.889,3.452,7.432,7.432,0,0,0,4.142,1.189A6.181,6.181,0,0,0,443.477,112.782Zm-4.072-4.058a5.02,5.02,0,0,1-1.573-2.263,9.455,9.455,0,0,1-.53-3.28,9.318,9.318,0,0,1,.524-3.246,4.869,4.869,0,0,1,1.56-2.225,4.51,4.51,0,0,1,5.107-.026,4.77,4.77,0,0,1,1.559,2.186,9.363,9.363,0,0,1,.531,3.311,9.476,9.476,0,0,1-.537,3.337,4.909,4.909,0,0,1-1.572,2.231A4.364,4.364,0,0,1,439.405,108.724ZM460.837,113v-3.094h0.269a8.408,8.408,0,0,0,1.042,1.515,5.549,5.549,0,0,0,1.783,1.361,6.178,6.178,0,0,0,2.8.563,7.437,7.437,0,0,0,4.142-1.189,8.083,8.083,0,0,0,2.889-3.452,12.884,12.884,0,0,0,1.061-5.5,12.741,12.741,0,0,0-1.08-5.529,7.974,7.974,0,0,0-2.915-3.413,7.546,7.546,0,0,0-4.11-1.157,6.1,6.1,0,0,0-2.838.582,5.458,5.458,0,0,0-1.764,1.394,8.657,8.657,0,0,0-1.01,1.528h-0.192V86.818h-4.628V113h4.551Zm0.518-13.13a4.76,4.76,0,0,1,1.566-2.186,4.5,4.5,0,0,1,5.1.026,4.884,4.884,0,0,1,1.56,2.225,10.357,10.357,0,0,1-.007,6.526,5.04,5.04,0,0,1-1.566,2.263,4,4,0,0,1-2.569.824,3.951,3.951,0,0,1-2.5-.8,4.969,4.969,0,0,1-1.572-2.231A10.565,10.565,0,0,1,461.355,99.87Zm30.969,12.248a8.554,8.554,0,0,0,3.267-3.541,12.832,12.832,0,0,0,0-10.65,8.536,8.536,0,0,0-3.267-3.554,10.453,10.453,0,0,0-9.971,0,8.534,8.534,0,0,0-3.266,3.554,12.832,12.832,0,0,0,0,10.65,8.552,8.552,0,0,0,3.266,3.541A10.457,10.457,0,0,0,492.324,112.118Zm-7.612-3.3a5.134,5.134,0,0,1-1.573-2.32,10.5,10.5,0,0,1,0-6.514,5.176,5.176,0,0,1,1.573-2.333,4.031,4.031,0,0,1,2.652-.869,3.949,3.949,0,0,1,2.608.869,5.2,5.2,0,0,1,1.566,2.333,10.5,10.5,0,0,1,0,6.514,5.162,5.162,0,0,1-1.566,2.32,3.969,3.969,0,0,1-2.608.863A4.052,4.052,0,0,1,484.712,108.813Zm14.068-15.45,5.829,9.818L498.627,113h4.909l4.116-7.07,4.155,7.07h4.871l-6.022-9.819,5.919-9.818h-4.9l-4.027,7.249-3.963-7.249H498.78Z" transform="translate(-310 -81)"/>
  <path class="cls-1" d="M328.439,119.843q0.388,0.048.78,0.081a21.91,21.91,0,0,0,9.784-8.45,21.565,21.565,0,0,0,3.328-12.022l-4.384-4.336A25.031,25.031,0,0,1,328.439,119.843Zm-1.564-.2,0.119,0.023A24.208,24.208,0,0,0,336.57,94.04l-6.244-6.175A29.616,29.616,0,0,1,326.875,119.643Zm21.179-15.1a22.506,22.506,0,0,1-7.346,12.178,23.252,23.252,0,0,1-3.492,2.481,20.479,20.479,0,0,0,13.373-12.152Zm-0.993-.7-3.6-3.566A22.4,22.4,0,0,1,340,111.907a22.722,22.722,0,0,1-8.75,8.093h0.017a20.587,20.587,0,0,0,2.421-.143A22.01,22.01,0,0,0,347.061,103.845ZM327.4,85.262L323.1,81A20.256,20.256,0,0,0,310,99.827h0a20.3,20.3,0,0,0,15.511,19.582A28.654,28.654,0,0,0,327.4,85.262ZM357,103.189a20.347,20.347,0,0,0-20.4-20.172h0a20.413,20.413,0,0,0-7.3,1.346l26.341,26.049A19.784,19.784,0,0,0,357,103.189h0Z" transform="translate(-310 -81)"/>
</svg>
