<?xml version="1.0" ?><!DOCTYPE svg  PUBLIC '-//W3C//DTD SVG 1.1//EN'  'http://www.w3.org/Graphics/SVG/1.1/DTD/svg11.dtd'><svg height="512px" style="enable-background:new 0 0 512 512;" version="1.1" viewBox="0 0 512 512" width="512px" xml:space="preserve" xmlns="http://www.w3.org/2000/svg" xmlns:xlink="http://www.w3.org/1999/xlink"><g id="_x31_22-coderwall"><g><g><g><path d="M136.699,76.563c0,33.033-26.709,59.813-59.653,59.813c-32.943,0-59.648-26.78-59.648-59.813      c0-33.033,26.705-59.812,59.648-59.812C109.99,16.75,136.699,43.529,136.699,76.563L136.699,76.563z M136.699,76.563" style="fill:#CE73DE;"/><path d="M315.648,76.563c0,33.033-26.705,59.813-59.646,59.813c-32.945,0-59.65-26.78-59.65-59.813      c0-33.033,26.705-59.812,59.65-59.812C288.943,16.75,315.648,43.529,315.648,76.563L315.648,76.563z M315.648,76.563" style="fill:#CE73DE;"/><path d="M494.604,76.563c0,33.033-26.709,59.813-59.654,59.813c-32.941,0-59.65-26.78-59.65-59.813      c0-33.033,26.709-59.812,59.65-59.812C467.895,16.75,494.604,43.529,494.604,76.563L494.604,76.563z M494.604,76.563" style="fill:#CE73DE;"/><path d="M315.648,256c0,33.033-26.705,59.813-59.646,59.813c-32.945,0-59.65-26.779-59.65-59.813      s26.705-59.813,59.65-59.813C288.943,196.188,315.648,222.967,315.648,256L315.648,256z M315.648,256" style="fill:#CE73DE;"/><path d="M494.604,256c0,33.033-26.709,59.813-59.654,59.813c-32.941,0-59.65-26.779-59.65-59.813      s26.709-59.813,59.65-59.813C467.895,196.188,494.604,222.967,494.604,256L494.604,256z M494.604,256" style="fill:#CE73DE;"/><path d="M494.604,435.434c0,33.033-26.709,59.816-59.654,59.816c-32.941,0-59.65-26.783-59.65-59.816      s26.709-59.813,59.65-59.813C467.895,375.621,494.604,402.4,494.604,435.434L494.604,435.434z M494.604,435.434" style="fill:#CE73DE;"/></g></g></g></g><g id="Layer_1"/></svg>