<?xml version="1.0" ?><!DOCTYPE svg  PUBLIC '-//W3C//DTD SVG 1.1//EN'  'http://www.w3.org/Graphics/SVG/1.1/DTD/svg11.dtd'><svg height="512px" style="enable-background:new 0 0 512 512;" version="1.1" viewBox="0 0 512 512" width="512px" xml:space="preserve" xmlns="http://www.w3.org/2000/svg" xmlns:xlink="http://www.w3.org/1999/xlink"><g id="_x31_27-basecamp"><g><g><g><path d="M256.002,54.132c-128.462,0-229.089,165.892-238.605,306.03      c40.294,70.995,137.527,97.705,238.605,97.705c101.074,0,198.309-26.71,238.602-97.705      C485.088,220.023,384.457,54.132,256.002,54.132L256.002,54.132z M256.002,54.132" style="fill:#D1F0D2;"/><path d="M404.707,228.306c-28.184-36.902-64.154-75.96-85.004-75.96      c-20.844,0-79.096,104.701-105.814,104.701c-26.725,0-40.628-47.668-73.491-47.458c-44.771,0.269-88.642,133.855-88.642,133.855      s18.131,81.671,208.001,81.671c189.869,0,205.02-80.33,205.02-80.33S445.24,281.358,404.707,228.306L404.707,228.306z       M404.707,228.306" style="fill:#75D679;"/><path d="M154.262,332.05c0-13.485,10.769-24.404,24.044-24.404c13.268,0,24.038,10.942,24.038,24.404      c0,13.485-10.77,24.404-24.038,24.404C165.031,356.454,154.262,345.535,154.262,332.05" style="fill:#516874;"/><path d="M309.658,332.05c0,13.485,10.768,24.404,24.039,24.404c13.268,0,24.037-10.946,24.037-24.404      c0-13.485-10.77-24.404-24.037-24.404C320.426,307.646,309.658,318.564,309.658,332.05" style="fill:#516874;"/><path d="M305.328,367.491c1.877-3.649,0.477-8.137-3.133-10.083c-3.576-1.944-8.049-0.537-9.988,3.112      c-0.385,0.78-10.051,18.391-35.613,18.391c-25.107,0-36.504-17.974-37.043-18.807c-2.113-3.529-6.646-4.641-10.139-2.484      c-3.494,2.151-4.594,6.794-2.477,10.316c0.629,1.08,15.955,26.021,49.658,26.021C291.4,393.957,304.764,368.593,305.328,367.491      L305.328,367.491z M305.328,367.491" style="fill:#516874;"/><path d="M216.865,301.755c-29.496,0-44.583-29.518-52.787-47.76c-7.369-16.418-8.648-42.343-29.56-43.06      c2.059-0.845,4.031-1.323,5.879-1.323c32.862,0,46.766,47.466,73.491,47.466c26.719,0,84.971-104.699,105.814-104.699      c3.938,0,8.354,1.407,13.152,3.914c-3.543-0.479-8.107-0.15-11.602,3.439C314.52,166.521,253.375,301.755,216.865,301.755      L216.865,301.755z M216.865,301.755" style="fill:#52C557;"/></g></g></g></g><g id="Layer_1"/></svg>