<svg width="457" height="176" viewBox="0 0 457 176" fill="none" xmlns="http://www.w3.org/2000/svg">
<path d="M50.0391 100.859L75.4125 89.5654L90.017 98.0352L92.9674 125.822L74.97 125.674L77.6253 106.356L74.5274 104.573L59.3328 116.461L50.0391 100.859Z" fill="black"/>
<path d="M91.6406 96.8456L114.064 113.339L122.915 97.44L104.917 90.1589V86.5927L122.915 79.163L114.064 63.4121L91.6406 79.906V96.8456Z" fill="black"/>
<path d="M90.017 78.5692L92.9674 50.7822L74.97 51.0794L77.6253 70.3965L74.5274 72.1796L59.1853 60.2922L50.0391 75.7459L75.4125 87.039L90.017 78.5692Z" fill="black"/>
<path d="M182.958 84.9721V111.005H192.644V77.8286H178.538V84.9721H182.958Z" fill="black"/>
<path d="M182.655 73.1672C183.543 74.0953 184.895 74.5593 186.711 74.5593C188.528 74.5593 189.859 74.0953 190.706 73.1672C191.595 72.1981 192.038 70.9873 192.038 69.5347C192.038 68.0412 191.595 66.8304 190.706 65.9023C189.859 64.9337 188.528 64.4492 186.711 64.4492C184.895 64.4492 183.543 64.9337 182.655 65.9023C181.808 66.8304 181.384 68.0412 181.384 69.5347C181.384 70.9873 181.808 72.1981 182.655 73.1672Z" fill="black"/>
<path d="M149.238 110.278C151.982 111.529 155.352 112.155 159.347 112.155C163.101 112.155 166.329 111.569 169.034 110.399C171.738 109.229 173.816 107.594 175.269 105.495C176.763 103.356 177.509 100.874 177.509 98.0487C177.509 95.3044 176.804 92.9837 175.391 91.0866C174.018 89.1495 172.102 87.636 169.639 86.5465C167.177 85.4161 164.332 84.7098 161.103 84.4276L157.713 84.1249C155.695 83.9631 154.242 83.4186 153.354 82.49C152.466 81.5619 152.022 80.472 152.022 79.2212C152.022 78.2522 152.265 77.3645 152.748 76.5573C153.233 75.7097 153.959 75.0438 154.928 74.5593C155.937 74.0753 157.168 73.833 158.621 73.833C160.154 73.833 161.426 74.1152 162.435 74.6807C162.657 74.8001 162.868 74.9278 163.066 75.0633L163.114 75.0969C163.188 75.1481 163.261 75.2013 163.332 75.2549C163.945 75.7233 164.433 76.2785 164.796 76.9205C165.32 77.8086 165.584 78.7971 165.584 79.8871H175.269C175.269 76.9809 174.603 74.4584 173.272 72.3195C171.94 70.1401 170.023 68.4653 167.521 67.2944C165.058 66.0836 162.092 65.4782 158.621 65.4782C155.311 65.4782 152.446 66.0436 150.024 67.1735C147.603 68.2635 145.706 69.8374 144.334 71.8954C143.001 73.9539 142.335 76.396 142.335 79.2212C142.335 83.1359 143.648 86.2838 146.271 88.6654C148.894 91.0466 152.406 92.4188 156.805 92.7819L160.135 93.0846C162.838 93.3269 164.796 93.8718 166.007 94.719C167.217 95.5262 167.823 96.6361 167.823 98.0487C167.823 98.698 167.717 99.3068 167.504 99.8757C167.346 100.298 167.13 100.698 166.855 101.076C166.208 101.923 165.26 102.589 164.009 103.074C162.758 103.558 161.204 103.8 159.347 103.8C157.289 103.8 155.614 103.518 154.323 102.952C153.031 102.347 152.063 101.56 151.416 100.592C150.811 99.6227 150.509 98.5737 150.509 97.4433H140.883C140.883 100.309 141.589 102.852 143.001 105.071C144.414 107.251 146.493 108.987 149.238 110.278Z" fill="black"/>
<path d="M214.256 111.428C210.906 111.428 208.202 111.025 206.144 110.217C204.085 109.37 202.572 107.977 201.603 106.04C200.675 104.062 200.211 101.399 200.211 98.0487V84.9116H195.186V77.8286H200.211V68.8689H209.231V77.8286H218.918V84.9116H209.231V98.4124C209.231 99.9863 209.635 101.197 210.442 102.044C211.289 102.852 212.48 103.255 214.014 103.255H218.918V111.428H214.256Z" fill="black"/>
<path fill-rule="evenodd" clip-rule="evenodd" d="M230.58 110.702C232.759 111.67 235.262 112.155 238.087 112.155C240.871 112.155 243.334 111.67 245.473 110.702C247.612 109.733 249.388 108.381 250.8 106.646C252.213 104.91 253.162 102.932 253.645 100.713H244.746C244.343 101.722 243.576 102.569 242.446 103.255C241.316 103.941 239.862 104.285 238.087 104.285C236.987 104.285 236.004 104.154 235.138 103.894C234.479 103.696 233.888 103.423 233.365 103.074C232.154 102.267 231.266 101.136 230.701 99.6836C230.544 99.2698 230.41 98.8369 230.297 98.3861C230.182 97.9293 230.089 97.4541 230.019 96.9593H254.251V93.69C254.251 90.663 253.605 87.8782 252.314 85.3357C251.022 82.7523 249.145 80.6738 246.684 79.0998C244.262 77.4854 241.275 76.6782 237.723 76.6782C235.019 76.6782 232.597 77.1627 230.458 78.1313C228.361 79.0594 226.605 80.3306 225.192 81.9451C223.78 83.5595 222.69 85.3962 221.922 87.4546C221.196 89.4722 220.833 91.5911 220.833 93.8109V95.0217C220.833 97.1611 221.196 99.2596 221.922 101.318C222.69 103.336 223.78 105.172 225.192 106.827C226.645 108.442 228.44 109.733 230.58 110.702ZM230.186 90.973C230.213 90.8448 230.241 90.7186 230.272 90.5943C230.356 90.2521 230.453 89.924 230.563 89.6106C230.625 89.4322 230.691 89.2582 230.762 89.089C231.367 87.5955 232.255 86.4656 233.425 85.6989C233.863 85.4122 234.337 85.1792 234.846 84.9999C235.702 84.6991 236.662 84.5485 237.723 84.5485C239.379 84.5485 240.75 84.9321 241.84 85.6989C242.97 86.4252 243.818 87.4946 244.383 88.9072C244.429 89.0213 244.472 89.1373 244.514 89.2548C244.581 89.4419 244.643 89.634 244.701 89.8309C244.786 90.1239 244.861 90.4271 244.927 90.7405C244.975 90.9715 245.016 91.208 245.053 91.4502H230.093C230.121 91.2884 230.152 91.1295 230.186 90.973Z" fill="black"/>
<path d="M258.248 111.005V77.8286H265.937V86.1844C266.041 85.6876 266.16 85.2109 266.293 84.7537C266.407 84.3686 266.529 83.9972 266.663 83.6404C267.511 81.3801 268.782 79.6853 270.477 78.5549C272.172 77.3845 274.25 76.7996 276.713 76.7996H277.136C279.639 76.7996 281.717 77.3845 283.372 78.5549C285.067 79.6853 286.339 81.3801 287.186 83.6404L287.253 83.811L287.31 83.967C287.348 83.8568 287.388 83.7481 287.428 83.6404C288.316 81.3801 289.608 79.6853 291.303 78.5549C292.998 77.3845 295.077 76.7996 297.539 76.7996H297.963C300.464 76.7996 302.563 77.3845 304.258 78.5549C305.994 79.6853 307.306 81.3801 308.193 83.6404C309.081 85.9007 309.526 88.7259 309.526 92.1161V111.005H299.839V91.5711C299.839 89.7549 299.355 88.2818 298.386 87.1519C297.458 86.0215 296.126 85.4566 294.391 85.4566C292.655 85.4566 291.283 86.042 290.274 87.2124C289.265 88.3423 288.76 89.8558 288.76 91.7529V111.005H279.013V91.5711C279.013 89.7549 278.529 88.2818 277.56 87.1519C276.632 86.0215 275.32 85.4566 273.626 85.4566C271.849 85.4566 270.457 86.042 269.448 87.2124C268.439 88.3423 267.934 89.8558 267.934 91.7529V111.005H258.248Z" fill="black"/>
<path fill-rule="evenodd" clip-rule="evenodd" d="M335.4 104.612V111.005H343.088V90.663C343.088 87.5955 342.483 85.0935 341.272 83.1559C340.061 81.1783 338.286 79.7052 335.945 78.7367C333.645 77.7681 330.799 77.2836 327.409 77.2836C326.674 77.2836 325.907 77.2914 325.107 77.3075C324.635 77.3173 324.15 77.3294 323.655 77.3441C322.323 77.3845 321.031 77.445 319.781 77.5259L318.825 77.5902C318.334 77.6243 317.873 77.658 317.439 77.6921C317.113 77.7174 316.804 77.7428 316.512 77.7681V85.9411C317.763 85.8602 319.155 85.7793 320.689 85.6989C321.118 85.6764 321.543 85.6555 321.965 85.636C322.575 85.6077 323.176 85.5833 323.771 85.5619C324.241 85.5448 324.707 85.5297 325.169 85.517C326.621 85.4766 327.792 85.4566 328.68 85.4566C330.456 85.4566 331.747 85.8802 332.555 86.7279C333.362 87.5755 333.765 88.8468 333.765 90.5421V90.663H327.772C324.826 90.663 322.223 91.0466 319.962 91.8134C317.702 92.5397 315.946 93.69 314.696 95.264C313.444 96.798 312.819 98.7755 312.819 101.197C312.819 103.417 313.323 105.334 314.332 106.949C315.341 108.522 316.733 109.733 318.509 110.58C320.326 111.428 322.425 111.852 324.805 111.852C327.106 111.852 329.043 111.428 330.618 110.58C332.232 109.733 333.483 108.522 334.371 106.949C334.527 106.683 334.673 106.408 334.809 106.122C335.001 105.718 335.172 105.293 335.323 104.847L335.4 104.612ZM333.765 98.7151V96.0512H327.711C326.016 96.0512 324.705 96.4748 323.777 97.3225C322.889 98.1297 322.444 99.2396 322.444 100.652C322.444 101.317 322.555 101.921 322.776 102.466C322.999 103.012 323.332 103.497 323.777 103.921C324.705 104.729 326.016 105.132 327.711 105.132C328.034 105.132 328.346 105.116 328.647 105.085C328.893 105.059 329.132 105.022 329.363 104.975C329.807 104.885 330.226 104.755 330.618 104.587C331.506 104.184 332.232 103.518 332.796 102.589C333.362 101.661 333.685 100.369 333.765 98.7151Z" fill="black"/>
<path d="M348.885 111.005V77.8286H356.574V88.779C356.942 85.653 357.871 83.1325 359.359 81.2188C361.377 78.6763 364.282 77.405 368.077 77.405H369.348V85.7593H366.926C364.263 85.7593 362.204 86.4856 360.751 87.9387C359.298 89.3513 358.571 91.4098 358.571 94.1136V111.005H348.885Z" fill="black"/>
<path d="M381.631 95.5062H384.84L395.313 111.005H406.21L392.93 91.9708L403.849 77.8286H393.679L381.631 93.6033V66.8104H371.945V111.005H381.631V95.5062Z" fill="black"/>
</svg>
